PathFileType	4	(X/Y/Z)	C:\Users\WrightLab\Desktop\Jo\P1.2Trial21.trc
DataRate	CameraRate	NumFrames	NumMarkers	Units	OrigDataRate	OrigDataStartFrame	OrigNumFrames
100.00	100.00	       14	19	mm	100.00	166	       660
Frame#	Time	Headset_Front			Headset_Back			Headset_Left			Headset_Right			Left_Shoulder			Right_Shoulder			Sternum			C7			Left Elbow			Right Elbow			Left Wrist			Right Wrist			Left ASIS			Right ASIS			S2			Left Knee			Right Knee			Left Ankle			Right Ankle			
		X1	Y1	Z1	X2	Y2	Z2	X3	Y3	Z3	X4	Y4	Z4	X5	Y5	Z5	X6	Y6	Z6	X7	Y7	Z7	X8	Y8	Z8	X9	Y9	Z9	X10	Y10	Z10	X11	Y11	Z11	X12	Y12	Z12	X13	Y13	Z13	X14	Y14	Z14	X15	Y15	Z15	X16	Y16	Z16	X17	Y17	Z17	X18	Y18	Z18	X19	Y19	Z19	

166	1.650	-615.69604	1352.57300	-671.08777	-592.65527	1454.40356	-960.28461	-491.29694	1395.25305	-838.09125	-713.67505	1388.41406	-782.11371	-391.74490	1179.23071	-869.87762	-816.81372	1186.16064	-910.93274	-618.41199	1128.08813	-764.68396	-593.59601	1245.57483	-998.52808	-333.79117	887.72235	-916.54266	-869.22821	940.43585	-995.89691	-285.28564	681.31763	-801.80756	-958.75507	693.52393	-985.50385	-487.98230	811.68854	-767.49237	-758.31592	800.58063	-796.84448	-577.99432	842.96216	-1065.67200	-453.72763	366.93820	-862.55408	-792.55060	423.70059	-724.90454	-395.26840	91.03198	-1140.23474	-843.97247	107.61804	-664.42194	
167	1.660	-619.37292	1354.73267	-660.68036	-598.76422	1455.30847	-950.94537	-496.14429	1396.07861	-829.80090	-718.63837	1389.66418	-771.16888	-397.30646	1180.92212	-861.82104	-822.03180	1186.54883	-898.48456	-623.15198	1129.51636	-753.50616	-600.03693	1246.23083	-987.89911	-339.29413	889.42188	-913.42944	-874.85321	940.68787	-984.04468	-287.28296	682.30560	-800.85468	-964.08716	694.45117	-974.84778	-492.87164	812.85272	-757.54956	-762.52734	801.87701	-783.01025	-584.17963	843.14441	-1053.38892	-456.19720	369.54910	-851.63470	-797.30072	422.98929	-713.88611	-397.75031	96.16098	-1132.44775	-846.21588	101.65027	-658.89032	
168	1.670	-622.78693	1356.38049	-650.35767	-604.96527	1455.89270	-941.07574	-500.83435	1397.48352	-821.09259	-722.10541	1390.71204	-759.66968	-402.35013	1182.09644	-853.33429	-828.54633	1188.07117	-886.89569	-627.97162	1131.18542	-743.06116	-606.40997	1247.00842	-977.50610	-345.50580	891.68713	-909.80194	-880.46393	941.81079	-972.47778	-290.40860	684.19354	-799.60901	-969.70111	694.74048	-963.57422	-498.64700	813.32440	-745.68121	-766.44501	802.63239	-769.95172	-590.72089	844.93848	-1042.10132	-461.54861	370.12677	-836.65717	-802.56897	425.33194	-702.57654	-400.89594	102.32315	-1124.14246	-848.74506	98.53493	-654.21997	
169	1.680	-624.71173	1358.41858	-640.05090	-610.92828	1456.86877	-931.35626	-505.63312	1398.97876	-813.20508	-726.51086	1392.67603	-748.57178	-407.36096	1183.67126	-843.57654	-833.69958	1188.74902	-874.25909	-632.75305	1132.42297	-731.77057	-612.53925	1248.52515	-966.78210	-350.76080	894.60577	-906.14056	-886.20538	942.59003	-959.46991	-292.10760	685.83838	-799.62549	-975.33331	696.06665	-952.28571	-503.56848	815.08795	-733.79535	-770.95477	804.82019	-758.24475	-596.96832	845.81958	-1029.20996	-466.89520	372.01465	-823.19995	-806.82892	425.47287	-689.84241	-405.43616	107.70824	-1113.50757	-851.20782	96.12788	-649.59814	
170	1.690	-627.46387	1360.28833	-629.30536	-616.75690	1457.57007	-921.25482	-510.36536	1399.88892	-803.06525	-730.18359	1393.98303	-736.95013	-412.28976	1186.02246	-836.72620	-839.33496	1190.17004	-861.42816	-636.31897	1134.50842	-722.03192	-618.88684	1249.48645	-956.44336	-352.20584	900.66693	-893.23572	-892.18011	943.84381	-946.78229	-295.75674	688.02692	-799.03070	-980.46808	697.13153	-939.57532	-508.18094	816.19940	-723.54022	-776.07935	806.18439	-746.51843	-602.98737	846.86810	-1017.49048	-472.58844	374.03091	-810.50397	-810.31439	426.47238	-678.67212	-410.07501	114.17442	-1100.55359	-852.00104	92.54034	-645.84991	
171	1.700	-631.29230	1362.26160	-619.18921	-622.43457	1458.20813	-911.37988	-514.97565	1400.72473	-791.37097	-734.18860	1395.50085	-725.89886	-417.14755	1187.54785	-827.18445	-844.39233	1191.69556	-849.63574	-639.75562	1134.94153	-711.20697	-624.86218	1250.79138	-945.86920	-360.07184	903.30426	-889.56409	-898.13824	945.21906	-933.97919	-298.92856	689.49072	-798.10413	-985.82281	698.64337	-926.68347	-513.40710	817.63220	-712.17236	-781.12390	808.56732	-735.28448				-479.65302	375.12698	-794.64966	-815.53400	428.24408	-668.57269	-415.31900	120.35963	-1086.30237	-852.40637	90.45913	-640.73438	
172	1.710	-631.46429	1363.85327	-608.12695	-627.84509	1459.13757	-901.29285	-519.25818	1402.79529	-785.44513	-737.89136	1397.28467	-715.41693	-421.36118	1189.90222	-818.97583	-848.67609	1193.10547	-837.05853	-643.62775	1135.70935	-700.74603	-630.84290	1252.18896	-935.83734	-366.55032	906.03619	-885.91840	-904.11304	947.02789	-920.83228	-301.70645	691.44189	-797.82404	-991.21643	700.45007	-913.68134	-518.05981	818.52521	-701.32135	-784.86499	809.48236	-724.13971	-611.57965	849.79773	-991.77234	-487.40399	375.22528	-783.25372	-819.62024	428.87399	-660.26312	-419.87042	127.77788	-1073.68982	-853.21277	88.80640	-638.90869	
173	1.720	-634.14484	1366.11621	-598.30878	-633.08643	1460.60022	-891.87421	-523.24561	1403.38928	-773.90509	-741.63007	1398.40955	-703.49524	-425.49768	1192.00220	-811.33289	-854.45880	1195.06958	-823.83087	-646.05780	1137.39722	-691.47034	-636.42932	1253.99622	-925.54449				-910.10718	948.83240	-906.96985	-303.68896	694.29333	-795.98254	-996.30414	701.72174	-899.20190	-522.17627	819.82874	-690.75055	-789.23993	811.51013	-714.13739	-616.40637	851.27228	-980.01154	-492.57480	377.52524	-763.46423	-823.42914	430.17105	-652.52142	-427.61725	133.18971	-1057.20984	-853.94019	87.21939	-635.65710	
174	1.730				-638.10815	1462.23010	-881.56830	-527.43323	1404.87903	-763.99078	-745.04529	1400.16345	-693.03967	-429.97357	1194.10864	-803.83063	-858.62726	1196.13684	-810.67096	-648.86603	1139.00354	-680.76538	-642.13043	1255.37561	-915.48938				-916.28088	950.43280	-893.12061	-307.25507	696.69159	-793.98969	-1001.84039	703.98456	-884.66937	-526.41418	820.54419	-683.01514	-794.23187	812.92230	-703.50659	-621.41620	852.81500	-969.67981	-493.46896	378.20056	-739.41248	-826.53308	429.38525	-644.83557	-434.62695	140.78003	-1042.47620	-853.79541	86.18786	-629.87457	
175	1.740	-639.31128	1369.51160	-577.75531	-642.96991	1463.83313	-871.51953	-530.82617	1406.43164	-754.49969	-747.87537	1402.06042	-681.95929	-433.86197	1196.29431	-796.43835	-862.23480	1197.50024	-796.47791	-650.65082	1140.34961	-670.84595	-647.56342	1257.03381	-905.03076	-390.48740	911.02686	-878.89246	-922.36743	951.94000	-878.57281	-309.57370	699.22949	-791.71991	-1007.23993	705.35455	-868.62640	-527.84387	821.66241	-667.51410	-798.05206	814.35608	-693.28589	-625.72864	854.57568	-958.48950	-494.71002	379.56934	-716.37744	-829.29218	429.37357	-637.67505	-441.38113	148.86743	-1025.37817	-854.93695	83.38944	-628.07294	
176	1.750	-641.91656	1371.68909	-567.45691	-647.51593	1465.81604	-861.49866	-534.56329	1408.77783	-747.08069	-751.44775	1403.99915	-671.06372	-437.24503	1198.66064	-789.29791	-865.62018	1199.04944	-783.45123	-652.52539	1141.72302	-660.85468	-652.65051	1259.06628	-895.19708	-395.47766	912.24878	-873.29620	-928.34662	953.52881	-863.99316	-312.54364	701.60205	-789.72363	-1012.80481	706.84650	-851.75232	-531.32220	823.18890	-659.08484	-801.83862	816.70905	-683.17700	-629.95313	856.61646	-948.48969	-499.37024	381.70230	-691.94379	-831.61658	428.32413	-632.43286	-449.98047	156.45152	-1008.12952	-855.03265	82.62322	-624.57751	
177	1.760	-642.70953	1372.66187	-557.44690	-651.92065	1467.54468	-851.50830	-538.15564	1411.16675	-739.34918	-754.70074	1406.18518	-660.18445	-440.61569	1200.39514	-781.35352	-869.75696	1200.96118	-770.41760	-654.56573	1143.27161	-652.02820	-657.59857	1261.22107	-885.28510	-400.39050	915.96332	-867.50909	-934.11096	955.42627	-849.48102	-315.95483	704.11761	-787.00061	-1018.82355	708.48102	-834.34149	-533.86340	825.32233	-650.58679	-805.24017	818.83789	-673.07446	-634.04846	858.68024	-938.88379	-503.96930	382.86966	-667.71472	-833.37201	428.21893	-627.15039	-457.59769	165.69435	-990.12445	-854.74805	81.80508	-623.25403	
178	1.770	-644.43524	1373.95984	-547.27313	-656.12207	1469.35925	-841.41400	-541.24896	1413.12842	-730.64014	-757.51855	1407.29504	-650.14514	-443.92230	1202.80554	-774.69434	-873.14264	1203.25208	-757.19098	-655.05237	1144.74915	-641.92352	-662.46844	1263.26611	-875.29755	-404.90543	918.01965	-861.80646	-939.74939	957.18494	-834.23828	-318.05396	707.78711	-783.58740	-1024.69897	710.50305	-816.80243	-534.78021	827.37799	-644.02155	-808.81934	820.44220	-663.74255	-638.18665	860.53381	-929.92126	-512.41089	385.08496	-647.59357	-835.51917	427.57852	-623.05762	-466.75671	173.71535	-972.11523	-854.98035	80.27874	-622.52338	
179	1.780	-646.56012	1375.64001	-537.93439	-660.09888	1471.12842	-831.41241	-544.09998	1414.86230	-721.09332	-759.16870	1408.51733	-639.20856	-446.88455	1205.25684	-769.46100	-876.10406	1204.26025	-743.09271	-656.30023	1145.71948	-632.46844	-667.10022	1265.53650	-865.85620	-407.77542	920.87799	-856.76526	-945.32178	958.68250	-818.91827	-320.67307	710.60150	-779.41833	-1030.83130	713.00378	-798.99023	-536.88879	829.39935	-637.18610	-811.01550	822.61877	-654.11871	-642.02441	862.63861	-921.14587	-519.22998	391.50586	-621.14325	-837.84216	427.57712	-619.17224	-474.82187	181.82481	-953.07385	-854.80988	78.89913	-621.90875	
